<!DOCTYPE svg PUBLIC "-//W3C//DTD SVG 1.1//EN" "http://www.w3.org/Graphics/SVG/1.1/DTD/svg11.dtd">
<!-- Uploaded to: SVG Repo, www.svgrepo.com, Transformed by: SVG Repo Mixer Tools -->
<svg fill="#b4c5e4" height="120px" width="120px" version="1.1" id="Layer_1" xmlns="http://www.w3.org/2000/svg" xmlns:xlink="http://www.w3.org/1999/xlink" viewBox="-112.64 -112.64 737.28 737.28" xml:space="preserve" stroke="#b4c5e4" stroke-width="0.00512">
<g id="SVGRepo_bgCarrier" stroke-width="0"/>
<g id="SVGRepo_tracerCarrier" stroke-linecap="round" stroke-linejoin="round"/>
<g id="SVGRepo_iconCarrier"> <g transform="translate(1 1)"> <g> <g> <path d="M509.72,131.267c-1.707-2.56-4.267-4.267-7.68-4.267H254.573H7.107c-3.413,0-5.973,1.707-6.827,5.12 c-1.707,2.56-1.707,5.973,0,8.533l34.133,51.2l33.095,49.643c0.208,0.847,0.542,1.666,1.038,2.411 c15.33,23.399,37.53,40.689,63.707,48.996C148.366,345.155,196.95,383,254.573,383c58.222,0,107.209-38.638,122.804-91.732 c25.556-8.2,47.889-24.788,64.076-49.068l34.133-51.2l34.133-51.2C511.427,137.24,511.427,133.827,509.72,131.267z M190.568,144.067c-15.033,8.674-28.125,20.316-38.484,34.133H45.507L23.32,144.067H190.568z M141.08,195.267 c-0.574,1.244-1.134,2.488-1.685,3.734c-4.629,9.528-8.113,19.719-10.271,30.4H79.64l-22.187-34.133H141.08z M127.427,272.067 c-12.8-5.973-24.747-14.507-34.987-25.6h34.133c0,2.56,0,5.973,0,8.533C126.573,260.973,126.573,266.947,127.427,272.067z M254.573,365.933c-61.44,0-110.933-49.493-110.933-110.933c0-2.594,0.096-5.165,0.269-7.713c0.227-2.525,0.643-5.321,1.438-8.5 c0.435-1.305,0.422-2.608,0.083-3.8c2.736-15.124,8.522-29.162,16.699-41.462c0.513-0.451,0.914-1.002,1.138-1.672 c20.62-28.869,53.2-46.572,87.72-47.724c0.109-0.003,0.217-0.009,0.326-0.012c1.085-0.033,2.172-0.051,3.261-0.051 c1.076,0,2.15,0.018,3.223,0.05c0.165,0.005,0.328,0.013,0.492,0.019c0.994,0.034,1.987,0.077,2.977,0.139 c0.003,0,0.007,0,0.01,0.001c27.316,1.703,53.21,13.756,72.678,33.438c4.014,4.126,7.715,8.556,11.055,13.256 c0.007,0.01,0.011,0.021,0.017,0.031c10.24,14.507,16.213,30.72,18.773,47.787c0.853,6.827,0.853,11.093,0.853,16.213 c0,9.387-0.853,18.773-3.413,28.16c-0.304,1.217-0.381,2.322-0.252,3.36C347.463,332.518,305.054,365.933,254.573,365.933z M381.72,272.067c0.853-5.973,0.853-11.093,0.853-17.067c0-2.56,0-5.973,0-8.533h34.133 C406.467,257.56,394.52,266.093,381.72,272.067z M429.507,229.4h-49.483c-2.158-10.68-5.642-20.872-10.271-30.4 c-0.552-1.245-1.111-2.49-1.685-3.734h84.48L429.507,229.4z M463.64,178.2H357.063c-10.359-13.817-23.452-25.459-38.484-34.133 H486.68L463.64,178.2z"/> <path d="M330.52,208.067c-1.707-2.56-5.12-4.267-7.68-4.267h-38.4l-23.04-30.72c-1.707-2.56-4.267-3.413-6.827-3.413 s-5.12,1.707-6.827,3.413l-23.04,30.72h-38.4c-2.56,0-5.973,1.707-7.68,4.267c-0.853,2.56-1.707,5.973,0,8.533l20.48,40.107 l-20.48,36.693c-1.707,2.56-1.707,5.973,0,8.533s4.267,4.267,7.68,4.267h38.4l23.04,30.72c1.707,2.56,4.267,3.413,6.827,3.413 s5.12-0.853,6.827-3.413l23.04-30.72h38.4c3.413,0,5.973-1.707,7.68-4.267s1.707-5.973,0-8.533l-20.48-36.693l20.48-40.107 C332.227,214.04,332.227,210.627,330.52,208.067z M292.12,260.973l16.213,28.16h-28.16c-2.56,0-5.12,0.853-6.827,3.413 l-18.773,24.747L235.8,292.547c-1.707-2.56-4.267-3.413-6.827-3.413h-28.16l15.36-28.16c0.853-2.56,1.707-5.12,0-7.68 l-16.213-32.427h29.013c2.56,0,5.12-0.853,6.827-3.413l18.773-24.747l18.773,24.747c1.707,2.56,4.267,3.413,6.827,3.413h28.16 l-16.213,32.427C290.413,255.853,290.413,258.413,292.12,260.973z"/> </g> </g> </g> </g>
</svg>